<svg width="19" height="19" viewBox="0 0 19 19" fill="none" xmlns="http://www.w3.org/2000/svg">
<path d="M17.7741 13.0279L13.3453 11.0432C13.1447 10.9573 12.9257 10.9227 12.7083 10.9427C12.4909 10.9626 12.282 11.0365 12.1003 11.1576C12.0819 11.1695 12.0643 11.1826 12.0478 11.197L9.73314 13.1657C9.70912 13.1788 9.68239 13.1862 9.65505 13.1871C9.62771 13.1881 9.60052 13.1827 9.57564 13.1714C8.08782 12.4532 6.54657 10.9214 5.82564 9.45418C5.81363 9.42967 5.80739 9.40273 5.80739 9.37543C5.80739 9.34814 5.81363 9.3212 5.82564 9.29668L7.80095 6.95293C7.81512 6.93559 7.82827 6.91744 7.84032 6.89856C7.95975 6.71622 8.03189 6.50701 8.05022 6.28981C8.06855 6.07262 8.0325 5.85427 7.94532 5.6545L5.9747 1.23325C5.86279 0.972256 5.66925 0.754599 5.42313 0.612946C5.17701 0.471292 4.89159 0.413282 4.6097 0.447622C3.3846 0.608681 2.26006 1.21031 1.44622 2.14009C0.632384 3.06987 0.184943 4.26417 0.187511 5.49981C0.187511 12.8404 6.15939 18.8123 13.5 18.8123C14.7356 18.8147 15.9298 18.3672 16.8595 17.5534C17.7893 16.7396 18.3909 15.6151 18.5522 14.3901C18.5865 14.1096 18.5292 13.8254 18.389 13.58C18.2488 13.3345 18.0332 13.1409 17.7741 13.0279ZM13.5 17.6873C6.78001 17.6873 1.31251 12.2198 1.31251 5.49981C1.30938 4.53787 1.65658 3.60769 2.28924 2.88307C2.9219 2.15845 3.79675 1.68895 4.75032 1.56231H4.77189C4.80967 1.56301 4.84635 1.57512 4.87713 1.59703C4.90791 1.61895 4.93136 1.64965 4.94439 1.68512L6.92251 6.10168C6.93379 6.12624 6.93963 6.15294 6.93963 6.17997C6.93963 6.20699 6.93379 6.23369 6.92251 6.25825L4.94345 8.60762C4.92868 8.62439 4.91521 8.64226 4.90314 8.66106C4.7793 8.85011 4.70637 9.06794 4.69143 9.29345C4.67648 9.51896 4.72002 9.7445 4.81782 9.94825C5.64939 11.6507 7.36501 13.3532 9.08626 14.1848C9.29119 14.2821 9.51784 14.3246 9.74409 14.3081C9.97034 14.2917 10.1885 14.2169 10.3772 14.0911C10.395 14.0789 10.4128 14.0657 10.4297 14.0517L12.7434 12.0829C12.7663 12.0707 12.7915 12.0635 12.8174 12.0618C12.8433 12.0602 12.8692 12.0642 12.8934 12.0736L17.3231 14.0582C17.3593 14.0737 17.3897 14.1001 17.4101 14.1337C17.4305 14.1673 17.4397 14.2065 17.4366 14.2457C17.3106 15.1998 16.8415 16.0753 16.1171 16.7086C15.3926 17.342 14.4623 17.6899 13.5 17.6873Z" fill="#021A0B"/>
</svg>
