<svg width="83" height="68" viewBox="0 0 83 68" fill="none" xmlns="http://www.w3.org/2000/svg">
<path d="M80.1623 4.39125C78.2835 1.97625 75.4898 0.75 71.8748 0.75C65.751 0.75 57.846 4.8975 50.7248 11.8462C48.0982 14.3746 45.759 17.1854 43.7498 20.2275V6C43.7498 5.40326 43.5127 4.83097 43.0908 4.40901C42.6688 3.98705 42.0965 3.75 41.4998 3.75C40.903 3.75 40.3307 3.98705 39.9088 4.40901C39.4868 4.83097 39.2498 5.40326 39.2498 6V20.2275C37.2476 17.1866 34.916 14.3758 32.2973 11.8462C25.1835 4.8975 17.2748 0.75 11.151 0.75C7.51727 0.75 4.72352 1.97625 2.84477 4.39125C0.771022 7.0575 -0.0464781 11.025 0.347272 16.5188C0.688522 21.2925 1.89227 26.4675 2.90102 30.4425C5.25602 39.72 10.6898 42.8175 14.8185 43.8225C13.7164 45.5744 12.9701 47.5263 12.6223 49.5666C12.2746 51.6069 12.332 53.6957 12.7915 55.7139C13.251 57.732 14.1035 59.6398 15.3003 61.3285C16.497 63.0171 18.0147 64.4535 19.7666 65.5556C21.5186 66.6577 23.4704 67.404 25.5107 67.7518C27.551 68.0996 29.6399 68.0421 31.658 67.5826C33.6761 67.1232 35.584 66.2707 37.2726 65.0739C38.9613 63.8771 40.3977 62.3594 41.4998 60.6075C43.7256 64.1461 47.266 66.6557 51.3421 67.584C55.4182 68.5123 59.6961 67.7833 63.2348 65.5575C66.7734 63.3317 69.2829 59.7913 70.2112 55.7152C71.1395 51.6391 70.4106 47.3612 68.1848 43.8225C72.3098 42.8363 77.7473 39.72 80.1023 30.4425C82.581 20.7038 84.5198 9.99375 80.1623 4.39125ZM27.9998 63.75C25.141 63.7091 22.4041 62.5857 20.3411 60.6062C18.2781 58.6267 17.0426 55.9386 16.8836 53.0839C16.7247 50.2293 17.6543 47.4206 19.4849 45.2244C21.3154 43.0282 23.9107 41.6079 26.7473 41.25C27.0427 41.2177 27.329 41.1276 27.5896 40.9847C27.8503 40.8419 28.0802 40.649 28.2663 40.4173C28.4524 40.1856 28.5911 39.9194 28.6744 39.6341C28.7576 39.3488 28.7839 39.0499 28.7516 38.7544C28.7194 38.4589 28.6293 38.1727 28.4864 37.912C28.3435 37.6514 28.1507 37.4215 27.919 37.2353C27.6872 37.0492 27.4211 36.9105 27.1358 36.8273C26.8504 36.744 26.5515 36.7177 26.256 36.75C23.4999 37.0581 20.8752 38.0935 18.651 39.75C15.276 39.8662 9.60602 38.565 7.26227 29.34C6.04352 24.5362 2.80352 11.7787 6.39602 7.15875C7.39352 5.8725 8.94977 5.25 11.151 5.25C15.981 5.25 23.046 9.105 29.151 15.0675C35.3835 21.1462 39.2498 27.9712 39.2498 32.8763V52.5C39.2498 55.4837 38.0645 58.3452 35.9547 60.455C33.8449 62.5647 30.9835 63.75 27.9998 63.75ZM75.741 29.3363C73.401 38.5613 67.7498 39.8587 64.3748 39.75C62.1514 38.092 59.5263 37.0565 56.7698 36.75C56.4743 36.7165 56.1751 36.7416 55.8893 36.8237C55.6035 36.9058 55.3367 37.0434 55.1041 37.2287C54.6343 37.6028 54.3324 38.1483 54.2648 38.745C54.1971 39.3417 54.3693 39.9409 54.7435 40.4107C55.1176 40.8805 55.663 41.1824 56.2598 41.25C58.4272 41.4853 60.4802 42.3431 62.1707 43.7197C63.8613 45.0964 65.1172 46.933 65.7867 49.0079C66.4562 51.0827 66.5107 53.307 65.9436 55.4121C65.3766 57.5172 64.2122 59.4132 62.5911 60.871C60.97 62.3288 58.9616 63.2861 56.8083 63.6274C54.6549 63.9686 52.4489 63.6791 50.4565 62.7939C48.4641 61.9088 46.7706 60.4657 45.5805 58.639C44.3904 56.8123 43.7545 54.6802 43.7498 52.5V32.8763C43.7498 27.9712 47.6198 21.1462 53.8485 15.0675C59.961 9.105 67.026 5.25 71.8748 5.25C74.076 5.25 75.6248 5.8725 76.6298 7.155C80.2035 11.775 76.9635 24.5325 75.7448 29.3363H75.741Z" fill="#34794F"/>
</svg>
