<svg width="71" height="78" viewBox="0 0 71 78" fill="none" xmlns="http://www.w3.org/2000/svg">
<path d="M70.645 75.6825C70.5555 75.9643 70.4113 76.2256 70.2207 76.4516C70.0302 76.6776 69.7969 76.8639 69.5343 76.9997C69.2717 77.1355 68.9849 77.2183 68.6904 77.2432C68.3958 77.2681 68.0992 77.2348 67.8175 77.145L35.5 66.8625L3.18249 77.145C2.9008 77.2346 2.60422 77.2679 2.30968 77.2429C2.01514 77.2179 1.7284 77.1351 1.46584 76.9993C1.20328 76.8635 0.970047 76.6773 0.779446 76.4514C0.588845 76.2255 0.444613 75.9642 0.354986 75.6825C0.265358 75.4008 0.232091 75.1042 0.257083 74.8097C0.282075 74.5151 0.364836 74.2284 0.500642 73.9659C0.636447 73.7033 0.822637 73.4701 1.04858 73.2795C1.27453 73.0889 1.5358 72.9446 1.81749 72.855L28.0675 64.5L1.81749 56.145C1.5358 56.0554 1.27453 55.9111 1.04858 55.7205C0.822637 55.5299 0.636447 55.2967 0.500642 55.0341C0.364836 54.7716 0.282075 54.4848 0.257083 54.1903C0.232091 53.8958 0.265358 53.5992 0.354986 53.3175C0.444613 53.0358 0.588845 52.7745 0.779446 52.5486C0.970047 52.3227 1.20328 52.1365 1.46584 52.0007C1.7284 51.8648 2.01514 51.7821 2.30968 51.7571C2.60422 51.7321 2.9008 51.7654 3.18249 51.855L35.5 62.1375L67.8175 51.855C68.3864 51.674 69.0039 51.7264 69.5341 52.0007C70.0644 52.2749 70.464 52.7486 70.645 53.3175C70.826 53.8864 70.7736 54.5039 70.4993 55.0341C70.2251 55.5644 69.7514 55.964 69.1825 56.145L42.9325 64.5L69.1825 72.855C69.4642 72.9445 69.7256 73.0887 69.9516 73.2793C70.1776 73.4698 70.3639 73.7031 70.4997 73.9657C70.6355 74.2283 70.7182 74.515 70.7432 74.8096C70.7681 75.1042 70.7347 75.4008 70.645 75.6825ZM13.75 31.5C13.75 13.9462 33.4825 1.60125 34.3225 1.08375C34.6767 0.8662 35.0843 0.751038 35.5 0.751038C35.9157 0.751038 36.3233 0.8662 36.6775 1.08375C37.5175 1.60125 57.25 13.9462 57.25 31.5C57.25 37.2685 54.9585 42.8007 50.8796 46.8796C46.8006 50.9585 41.2684 53.25 35.5 53.25C29.7315 53.25 24.1993 50.9585 20.1204 46.8796C16.0415 42.8007 13.75 37.2685 13.75 31.5ZM35.5 48.75C37.2902 48.75 39.0071 48.0388 40.273 46.773C41.5388 45.5071 42.25 43.7902 42.25 42C42.25 36.195 37.75 31.7137 35.5 29.835C33.25 31.71 28.75 36.21 28.75 42C28.75 43.7902 29.4611 45.5071 30.727 46.773C31.9929 48.0388 33.7098 48.75 35.5 48.75ZM18.25 31.5C18.2502 34.0635 18.8226 36.5946 19.9255 38.9087C21.0284 41.2228 22.6339 43.2616 24.625 44.8762C24.3759 43.9378 24.2498 42.9709 24.25 42C24.25 31.9125 33.8425 25.3987 34.2512 25.125C34.621 24.8783 35.0555 24.7467 35.5 24.7467C35.9445 24.7467 36.379 24.8783 36.7487 25.125C37.1575 25.395 46.75 31.9087 46.75 42C46.7502 42.9709 46.6241 43.9378 46.375 44.8762C48.366 43.2616 49.9716 41.2228 51.0745 38.9087C52.1773 36.5946 52.7498 34.0635 52.75 31.5C52.75 18.7275 39.5687 8.5425 35.5 5.7075C31.4312 8.5425 18.25 18.7237 18.25 31.5Z" fill="#34794F"/>
</svg>
