<svg width="97" height="96" viewBox="0 0 97 96" fill="none" xmlns="http://www.w3.org/2000/svg">
<path d="M92.0373 45.9863C91.7037 45.3997 91.2567 44.8854 90.7223 44.4734C90.1879 44.0613 89.5769 43.7598 88.9248 43.5863C85.9669 42.83 82.903 42.5764 79.861 42.8363C81.6123 35.1 80.4685 28.995 79.3173 25.4363C78.9155 24.1791 78.06 23.1166 76.9175 22.4559C75.7749 21.7952 74.4273 21.5836 73.1373 21.8625C69.1332 22.7606 65.3425 24.4305 61.9773 26.7788C59.6353 21.684 56.0944 17.2321 51.6573 13.8038C50.7468 13.1177 49.6379 12.7467 48.4979 12.7467C47.358 12.7467 46.249 13.1177 45.3385 13.8038C40.9038 17.2336 37.3645 21.6852 35.0223 26.7788C31.6562 24.4296 27.8641 22.7597 23.8585 21.8625C22.5685 21.584 21.221 21.7961 20.079 22.4576C18.937 23.1191 18.0825 24.1824 17.6823 25.44C16.531 28.9988 15.3873 35.1038 17.1385 42.84C14.0966 42.5802 11.0326 42.8337 8.07478 43.59C7.42269 43.7635 6.81165 44.0651 6.27728 44.4771C5.74291 44.8892 5.29589 45.4035 4.96228 45.99C4.61167 46.5928 4.38467 47.2594 4.29453 47.9509C4.20439 48.6424 4.25292 49.345 4.43728 50.0175C5.67853 54.6225 9.49978 63.375 21.0948 70.3162C32.6898 77.2575 42.9835 77.25 48.4998 77.25C54.016 77.25 64.2948 77.25 75.8973 70.3162C87.4998 63.3825 91.3135 54.6225 92.5548 50.0137C92.7403 49.3417 92.79 48.6394 92.7012 47.9479C92.6123 47.2565 92.3866 46.5896 92.0373 45.9863ZM63.6798 31.0875C66.7673 28.7593 70.3124 27.1107 74.0823 26.25C74.2825 26.2091 74.4908 26.244 74.6668 26.348C74.8427 26.4519 74.9739 26.6174 75.0348 26.8125C76.5123 31.395 77.9635 40.875 71.0635 52.875C68.2937 57.6082 64.7437 61.839 60.5635 65.3887C63.4435 60.375 65.7498 53.5988 65.7498 44.6887C65.7848 40.074 65.0861 35.4829 63.6798 31.0875ZM21.9648 26.8238C22.0234 26.6266 22.1536 26.4584 22.3298 26.3523C22.5061 26.2462 22.7156 26.2097 22.9173 26.25C26.6872 27.1107 30.2323 28.7593 33.3198 31.0875C31.9135 35.4829 31.2148 40.074 31.2498 44.6887C31.2498 53.5988 33.556 60.3825 36.4285 65.3775C32.2475 61.8286 28.6973 57.5976 25.9285 52.8638C19.036 40.875 20.4873 31.395 21.9648 26.8238ZM23.4048 66.45C13.1673 60.3337 9.84853 52.7925 8.77978 48.825C8.75176 48.7242 8.74428 48.6188 8.75781 48.5151C8.77134 48.4114 8.80559 48.3115 8.85853 48.2212C8.93995 48.0765 9.07439 47.9689 9.23353 47.9213C12.2642 47.1682 15.4153 47.0317 18.4998 47.52C19.4512 50.1546 20.6346 52.6996 22.036 55.125C25.8834 61.7644 31.1299 67.4869 37.411 71.895C32.4592 70.915 27.7183 69.0719 23.4048 66.45ZM48.4998 72.3225C45.2448 69.9975 35.7498 61.7475 35.7498 44.6887C35.7498 28.4287 44.3523 20.1863 48.0498 17.3963C48.1796 17.2989 48.3375 17.2463 48.4998 17.2463C48.6621 17.2463 48.82 17.2989 48.9498 17.3963C52.6473 20.1863 61.2498 28.4287 61.2498 44.6887C61.2498 61.8525 51.8035 70.0013 48.4998 72.3225ZM88.2123 48.84C87.1435 52.7925 83.8248 60.3338 73.5873 66.465C69.269 69.0816 64.5243 70.9183 59.5698 71.8913C65.851 67.4832 71.0974 61.7607 74.9448 55.1213C76.3524 52.6977 77.5421 50.154 78.4998 47.52C81.5877 47.0356 84.7414 47.1771 87.7735 47.9362C87.9327 47.9839 88.0671 48.0915 88.1485 48.2363C88.2002 48.327 88.2332 48.4272 88.2454 48.5309C88.2576 48.6346 88.2489 48.7397 88.2198 48.84H88.2123Z" fill="#34794F"/>
</svg>
