<svg width="71" height="90" viewBox="0 0 71 90" fill="none" xmlns="http://www.w3.org/2000/svg">
<path d="M25.75 54.975V15C25.75 14.4033 25.5129 13.831 25.091 13.409C24.669 12.9871 24.0967 12.75 23.5 12.75C22.9033 12.75 22.331 12.9871 21.909 13.409C21.4871 13.831 21.25 14.4033 21.25 15V54.975C18.5184 55.5326 16.0911 57.0846 14.4388 59.3301C12.7865 61.5756 12.0268 64.3546 12.307 67.1284C12.5872 69.9022 13.8873 72.4732 15.9554 74.3429C18.0235 76.2125 20.7121 77.2477 23.5 77.2477C26.2879 77.2477 28.9765 76.2125 31.0446 74.3429C33.1127 72.4732 34.4128 69.9022 34.693 67.1284C34.9732 64.3546 34.2135 61.5756 32.5612 59.3301C30.9089 57.0846 28.4816 55.5326 25.75 54.975ZM23.5 72.75C22.165 72.75 20.8599 72.3541 19.7499 71.6124C18.6399 70.8707 17.7747 69.8165 17.2638 68.5831C16.7529 67.3497 16.6192 65.9925 16.8797 64.6831C17.1401 63.3738 17.783 62.171 18.727 61.227C19.671 60.283 20.8738 59.6402 22.1831 59.3797C23.4925 59.1193 24.8497 59.2529 26.0831 59.7638C27.3165 60.2747 28.3707 61.1399 29.1124 62.2499C29.8541 63.3599 30.25 64.665 30.25 66C30.25 67.7902 29.5388 69.5071 28.273 70.773C27.0071 72.0388 25.2902 72.75 23.5 72.75ZM37.75 47.625V15C37.75 11.2207 36.2487 7.59612 33.5763 4.92373C30.9039 2.25133 27.2793 0.75 23.5 0.75C19.7207 0.75 16.0961 2.25133 13.4237 4.92373C10.7513 7.59612 9.25 11.2207 9.25 15V47.625C5.41967 50.5961 2.61379 54.6901 1.22483 59.3344C-0.164129 63.9787 -0.0666974 68.941 1.5035 73.5272C3.07369 78.1134 6.03812 82.0941 9.98212 84.9126C13.9261 87.731 18.6524 89.2462 23.5 89.2462C28.3476 89.2462 33.0739 87.731 37.0179 84.9126C40.9619 82.0941 43.9263 78.1134 45.4965 73.5272C47.0667 68.941 47.1641 63.9787 45.7752 59.3344C44.3862 54.6901 41.5803 50.5961 37.75 47.625ZM23.5 84.75C19.5116 84.7462 15.6283 83.4706 12.4145 81.1087C9.20064 78.7468 6.82367 75.4217 5.62899 71.6164C4.4343 67.8111 4.48414 63.724 5.77127 59.949C7.05841 56.174 9.51576 52.9078 12.7863 50.625C13.0878 50.4149 13.3333 50.1342 13.5013 49.8074C13.6693 49.4805 13.7547 49.1175 13.75 48.75V15C13.75 12.4141 14.7772 9.93419 16.6057 8.10571C18.4342 6.27723 20.9141 5.25 23.5 5.25C26.0859 5.25 28.5658 6.27723 30.3943 8.10571C32.2228 9.93419 33.25 12.4141 33.25 15V48.75C33.2502 49.1124 33.3379 49.4694 33.5057 49.7906C33.6735 50.1119 33.9164 50.3878 34.2138 50.595C37.4973 52.8733 39.967 56.1412 41.2626 59.922C42.5581 63.7027 42.6117 67.7985 41.4155 71.6119C40.2194 75.4253 37.836 78.7567 34.6132 81.1201C31.3903 83.4835 27.4966 84.7553 23.5 84.75ZM45.625 26.88C45.2995 26.3802 45.1857 25.7715 45.3088 25.1879C45.4319 24.6043 45.7816 24.0933 46.2812 23.7675C51.5838 20.3137 55.6375 22.0388 58.8925 23.43C61.855 24.6938 63.9925 25.605 67.2812 23.4637C67.5286 23.2934 67.8075 23.1742 68.1016 23.1133C68.3957 23.0524 68.699 23.051 68.9937 23.1092C69.2883 23.1674 69.5683 23.284 69.8172 23.4521C70.0661 23.6202 70.2788 23.8364 70.4428 24.088C70.6068 24.3397 70.7187 24.6216 70.772 24.9171C70.8254 25.2127 70.819 25.5159 70.7532 25.809C70.6875 26.1021 70.5638 26.379 70.3893 26.6235C70.2149 26.8679 69.9932 27.075 69.7375 27.2325C67.4425 28.7325 65.38 29.2537 63.5163 29.2537C61.075 29.2537 58.975 28.3575 57.1413 27.57C54.1825 26.3062 52.045 25.395 48.7525 27.5363C48.5045 27.6998 48.2265 27.8126 47.9346 27.8681C47.6427 27.9236 47.3428 27.9208 47.052 27.8598C46.7612 27.7988 46.4854 27.6808 46.2405 27.5126C45.9956 27.3444 45.7864 27.1294 45.625 26.88ZM70.375 36.12C70.7002 36.6203 70.8133 37.2292 70.6895 37.8129C70.5658 38.3966 70.2152 38.9072 69.715 39.2325C67.42 40.7325 65.3575 41.2537 63.4937 41.2537C61.0525 41.2537 58.9525 40.3575 57.1187 39.57C54.16 38.3062 52.0225 37.395 48.73 39.5363C48.2304 39.8439 47.6304 39.9442 47.0579 39.8158C46.4854 39.6874 45.9857 39.3404 45.6653 38.8489C45.3449 38.3573 45.2293 37.7601 45.3429 37.1844C45.4566 36.6088 45.7906 36.1004 46.2738 35.7675C51.5762 32.3137 55.63 34.0425 58.885 35.43C61.8475 36.6938 63.985 37.605 67.2738 35.4637C67.7727 35.1418 68.3786 35.0301 68.9596 35.153C69.5405 35.2759 70.0493 35.6235 70.375 36.12Z" fill="#34794F"/>
</svg>
