<svg width="65" height="84" viewBox="0 0 65 84" fill="none" xmlns="http://www.w3.org/2000/svg">
<path d="M49.1987 15.3975C44.6056 10.0919 39.4377 5.31268 33.79 1.14749C33.4119 0.882889 32.9615 0.740967 32.5 0.740967C32.0385 0.740967 31.5881 0.882889 31.21 1.14749C25.5623 5.31268 20.3944 10.0919 15.8013 15.3975C5.6275 27.0975 0.25 39.4087 0.25 51C0.25 59.5532 3.64776 67.7561 9.69581 73.8042C15.7439 79.8522 23.9468 83.25 32.5 83.25C41.0532 83.25 49.2561 79.8522 55.3042 73.8042C61.3522 67.7561 64.75 59.5532 64.75 51C64.75 39.4087 59.3725 27.0975 49.1987 15.3975ZM32.5 78.75C25.143 78.7411 18.0898 75.8145 12.8877 70.6123C7.68545 65.4101 4.75893 58.357 4.75 51C4.75 28.6425 26.875 10.1512 32.5 5.80874C38.125 10.1512 60.25 28.6425 60.25 51C60.2411 58.357 57.3145 65.4101 52.1123 70.6123C46.9101 75.8145 39.857 78.7411 32.5 78.75ZM52.72 54.375C51.9697 58.5676 49.953 62.4296 46.9413 65.4413C43.9296 68.453 40.0676 70.4697 35.875 71.22C35.7509 71.2389 35.6256 71.249 35.5 71.25C34.9343 71.2522 34.3885 71.0413 33.9713 70.6592C33.5542 70.2771 33.2963 69.7518 33.249 69.1881C33.2017 68.6244 33.3685 68.0635 33.7161 67.6172C34.0638 67.171 34.5668 66.872 35.125 66.78C41.6425 65.685 47.1738 60.15 48.28 53.625C48.3795 53.0362 48.7087 52.5111 49.1954 52.1651C49.4364 51.9937 49.7087 51.8715 49.9969 51.8055C50.2851 51.7394 50.5835 51.7307 50.875 51.78C51.1665 51.8292 51.4455 51.9354 51.696 52.0925C51.9465 52.2495 52.1636 52.4544 52.3349 52.6954C52.5063 52.9363 52.6285 53.2087 52.6945 53.4969C52.7606 53.7851 52.7692 54.0835 52.72 54.375Z" fill="#34794F"/>
</svg>
