<svg width="77" height="78" viewBox="0 0 77 78" fill="none" xmlns="http://www.w3.org/2000/svg">
<path d="M55.4463 49.125C51.7263 55.56 45.55 59.25 38.5 59.25C31.45 59.25 25.2738 55.56 21.5538 49.125C21.2848 48.6108 21.2249 48.0125 21.3866 47.4552C21.5482 46.8978 21.919 46.4245 22.4215 46.1341C22.9239 45.8437 23.5191 45.7586 24.0828 45.8967C24.6464 46.0347 25.1349 46.3853 25.4463 46.875C28.3863 51.9525 33.0213 54.75 38.5 54.75C43.9788 54.75 48.625 51.9525 51.5538 46.875C51.6944 46.6061 51.888 46.3685 52.1229 46.1763C52.3578 45.9842 52.6291 45.8416 52.9206 45.757C53.212 45.6725 53.5175 45.6478 53.8188 45.6843C54.12 45.7209 54.4107 45.8181 54.6735 45.9699C54.9362 46.1218 55.1655 46.3252 55.3475 46.568C55.5296 46.8108 55.6607 47.0879 55.7328 47.3826C55.805 47.6774 55.8169 47.9837 55.7676 48.2831C55.7184 48.5825 55.6091 48.8689 55.4463 49.125ZM76.75 39C76.75 46.5651 74.5067 53.9604 70.3037 60.2506C66.1008 66.5407 60.1269 71.4433 53.1377 74.3384C46.1484 77.2334 38.4576 77.9909 31.0378 76.515C23.618 75.0392 16.8025 71.3962 11.4532 66.0468C6.10382 60.6975 2.46087 53.882 0.98498 46.4622C-0.490904 39.0424 0.266572 31.3516 3.16162 24.3624C6.05668 17.3731 10.9593 11.3993 17.2495 7.19629C23.5396 2.99332 30.9349 0.75 38.5 0.75C48.6409 0.761909 58.363 4.79563 65.5337 11.9663C72.7044 19.137 76.7381 28.8591 76.75 39ZM72.25 39C72.25 32.3249 70.2706 25.7997 66.5621 20.2495C62.8536 14.6993 57.5826 10.3735 51.4156 7.81907C45.2486 5.26461 38.4626 4.59625 31.9157 5.8985C25.3689 7.20075 19.3552 10.4151 14.6352 15.1351C9.91514 19.8552 6.70077 25.8688 5.39851 32.4157C4.09626 38.9626 4.76463 45.7486 7.31908 51.9156C9.87354 58.0826 14.1994 63.3536 19.7495 67.0621C25.2997 70.7706 31.8249 72.75 38.5 72.75C47.448 72.7401 56.0267 69.1811 62.3539 62.8539C68.6811 56.5267 72.2401 47.948 72.25 39ZM25 35.25C25.7417 35.25 26.4667 35.0301 27.0834 34.618C27.7001 34.206 28.1807 33.6203 28.4646 32.9351C28.7484 32.2498 28.8227 31.4958 28.678 30.7684C28.5333 30.041 28.1761 29.3728 27.6517 28.8484C27.1272 28.3239 26.459 27.9667 25.7316 27.8221C25.0042 27.6774 24.2502 27.7516 23.565 28.0355C22.8797 28.3193 22.2941 28.7999 21.882 29.4166C21.4699 30.0333 21.25 30.7583 21.25 31.5C21.25 32.4946 21.6451 33.4484 22.3484 34.1516C23.0516 34.8549 24.0055 35.25 25 35.25ZM52 27.75C51.2583 27.75 50.5333 27.9699 49.9166 28.382C49.2999 28.794 48.8193 29.3797 48.5355 30.0649C48.2516 30.7502 48.1774 31.5042 48.3221 32.2316C48.4668 32.959 48.8239 33.6272 49.3484 34.1516C49.8728 34.6761 50.541 35.0332 51.2684 35.1779C51.9959 35.3226 52.7499 35.2484 53.4351 34.9645C54.1203 34.6807 54.706 34.2001 55.118 33.5834C55.5301 32.9667 55.75 32.2417 55.75 31.5C55.75 30.5054 55.3549 29.5516 54.6517 28.8484C53.9484 28.1451 52.9946 27.75 52 27.75Z" fill="#34794F"/>
</svg>
